<svg xmlns="http://www.w3.org/2000/svg" width="200" height="200" viewBox="0 0 200 200">
  <circle cx="100" cy="100" r="100" fill="#0D1B4B"/>
  <line x1="100" y1="55" x2="148" y2="80" stroke="#FFD54F" stroke-width="2" stroke-linecap="round"/>
  <line x1="100" y1="55" x2="52" y2="80" stroke="#FFD54F" stroke-width="2" stroke-linecap="round"/>
  <line x1="100" y1="145" x2="148" y2="120" stroke="#FFD54F" stroke-width="2" stroke-linecap="round"/>
  <line x1="100" y1="145" x2="52" y2="120" stroke="#FFD54F" stroke-width="2" stroke-linecap="round"/>
  <line x1="158" y1="100" x2="140" y2="85" stroke="#FFD54F" stroke-width="1.5" stroke-linecap="round"/>
  <line x1="158" y1="100" x2="140" y2="115" stroke="#FFD54F" stroke-width="1.5" stroke-linecap="round"/>
  <line x1="42" y1="100" x2="60" y2="85" stroke="#FFD54F" stroke-width="1.5" stroke-linecap="round"/>
  <line x1="42" y1="100" x2="60" y2="115" stroke="#FFD54F" stroke-width="1.5" stroke-linecap="round"/>
  <polygon points="108,52 90,100 118,100 82,148 120,148 92,100 120,100 100,52" fill="#FFD54F"/>
  <polygon points="108,52 92,92 114,92 84,140 116,140 96,96 118,96 100,52" fill="#FFF176"/>
  <circle cx="88" cy="96" r="5" fill="#1a1a1a"/>
  <circle cx="110" cy="112" r="5" fill="#1a1a1a"/>
  <circle cx="89" cy="94" r="2" fill="#ffffff"/>
  <circle cx="111" cy="110" r="2" fill="#ffffff"/>
</svg>
