<svg xmlns="http://www.w3.org/2000/svg" width="200" height="200" viewBox="0 0 200 200">
  <circle cx="100" cy="100" r="100" fill="#E65100"/>
  <polygon points="70,82 56,52 84,76" fill="#E65100"/>
  <polygon points="130,82 144,52 116,76" fill="#E65100"/>
  <circle cx="100" cy="108" r="50" fill="#FF8F00"/>
  <ellipse cx="100" cy="125" rx="28" ry="18" fill="#FFF9C4"/>
  <rect x="72" y="78" width="12" height="4" rx="2" fill="#1a1a1a"/>
  <rect x="116" y="78" width="12" height="4" rx="2" fill="#1a1a1a"/>
  <rect x="78" y="68" width="8" height="3" rx="1" fill="#1a1a1a" transform="rotate(-20 78 68)"/>
  <rect x="114" y="68" width="8" height="3" rx="1" fill="#1a1a1a" transform="rotate(20 114 68)"/>
  <rect x="86" y="86" width="28" height="3" rx="1" fill="#1a1a1a" transform="rotate(10 86 86)"/>
  <rect x="86" y="58" width="28" height="3" rx="1" fill="#1a1a1a" transform="rotate(-3 86 58)"/>
  <ellipse cx="86" cy="94" rx="7" ry="6" fill="#1a1a1a"/>
  <ellipse cx="114" cy="94" rx="7" ry="6" fill="#1a1a1a"/>
  <circle cx="88" cy="92" r="2" fill="#ffffff"/>
  <circle cx="116" cy="92" r="2" fill="#ffffff"/>
  <ellipse cx="100" cy="112" rx="6" ry="5" fill="#1a1a1a"/>
</svg>
