<svg xmlns="http://www.w3.org/2000/svg" width="200" height="200" viewBox="0 0 200 200">
  <circle cx="100" cy="100" r="100" fill="#B71C1C"/>
  <path d="M100 155 Q72 130 68 108 Q64 86 80 74 Q88 68 84 56 Q96 70 92 86 Q104 72 108 56 Q116 72 110 88 Q124 76 128 60 Q138 80 132 100 Q128 118 116 130 Z" fill="#E53935"/>
  <path d="M100 148 Q78 126 76 108 Q74 92 86 82 Q88 76 86 66 Q96 76 92 90 Q102 78 106 66 Q112 78 108 90 Q118 80 122 68 Q130 84 126 100 Q122 116 112 126 Z" fill="#FF7043"/>
  <path d="M100 142 Q84 122 82 106 Q82 94 90 86 Q90 80 90 74 Q98 82 96 94 Q104 84 108 74 Q114 86 110 96 Q118 88 120 78 Q126 92 122 106 Q118 118 108 128 Z" fill="#FFD54F"/>
  <circle cx="88" cy="104" r="5" fill="#1a1a1a"/>
  <circle cx="112" cy="104" r="5" fill="#1a1a1a"/>
  <circle cx="89" cy="102" r="2" fill="#ffffff"/>
  <circle cx="113" cy="102" r="2" fill="#ffffff"/>
</svg>
