<svg xmlns="http://www.w3.org/2000/svg" width="200" height="200" viewBox="0 0 200 200">
  <circle cx="100" cy="100" r="100" fill="#00695C"/>
  <polygon points="100,44 64,82 100,156 136,82" fill="#80DEEA"/>
  <polygon points="100,44 64,82 100,100" fill="#B2EBF2"/>
  <polygon points="100,44 136,82 100,100" fill="#E0F7FA"/>
  <polygon points="64,82 100,100 100,156" fill="#4DD0E1"/>
  <polygon points="136,82 100,100 100,156" fill="#00ACC1"/>
  <line x1="64" y1="82" x2="136" y2="82" stroke="#ffffff" stroke-width="1.5" stroke-opacity="0.6"/>
  <line x1="100" y1="44" x2="64" y2="82" stroke="#ffffff" stroke-width="1" stroke-opacity="0.5"/>
  <line x1="100" y1="44" x2="136" y2="82" stroke="#ffffff" stroke-width="1" stroke-opacity="0.5"/>
  <line x1="100" y1="100" x2="64" y2="82" stroke="#ffffff" stroke-width="1" stroke-opacity="0.4"/>
  <line x1="100" y1="100" x2="136" y2="82" stroke="#ffffff" stroke-width="1" stroke-opacity="0.4"/>
  <circle cx="100" cy="44" r="4" fill="#ffffff"/>
  <circle cx="56" cy="82" r="3" fill="#ffffff"/>
  <circle cx="144" cy="82" r="3" fill="#ffffff"/>
  <circle cx="100" cy="158" r="3" fill="#ffffff"/>
  <circle cx="64" cy="148" r="3" fill="#E0F7FA"/>
  <circle cx="136" cy="148" r="3" fill="#E0F7FA"/>
  <circle cx="42" cy="68" r="3" fill="#80DEEA" opacity="0.8"/>
  <circle cx="158" cy="68" r="3" fill="#80DEEA" opacity="0.8"/>
  <circle cx="46" cy="126" r="2.5" fill="#B2EBF2" opacity="0.7"/>
  <circle cx="154" cy="126" r="2.5" fill="#B2EBF2" opacity="0.7"/>
</svg>
