<svg xmlns="http://www.w3.org/2000/svg" width="200" height="200" viewBox="0 0 200 200">
  <circle cx="100" cy="100" r="100" fill="#1565C0"/>
  <ellipse cx="100" cy="112" rx="52" ry="62" fill="#78909C"/>
  <ellipse cx="100" cy="118" rx="30" ry="48" fill="#ECEFF1"/>
  <polygon points="48,88 18,72 52,112" fill="#78909C"/>
  <polygon points="152,88 182,72 148,112" fill="#78909C"/>
  <polygon points="100,42 92,76 108,76" fill="#546E7A"/>
  <circle cx="80" cy="74" r="7" fill="#1a1a1a"/>
  <circle cx="120" cy="74" r="7" fill="#1a1a1a"/>
  <circle cx="82" cy="72" r="2" fill="#ffffff"/>
  <circle cx="122" cy="72" r="2" fill="#ffffff"/>
  <path d="M76 138 Q100 158 124 138" fill="#ECEFF1" stroke="#546E7A" stroke-width="1.5"/>
  <rect x="85" y="138" width="8" height="9" fill="#ffffff"/>
  <rect x="96" y="138" width="8" height="9" fill="#ffffff"/>
  <rect x="107" y="138" width="8" height="9" fill="#ffffff"/>
</svg>
